<svg xmlns="http://www.w3.org/2000/svg" viewBox="0 0 97.41 97.78"><defs><style>.cls-1{fill:#323c8b;}.cls-2{fill:#4259a8;}.cls-3{fill:#e97293;}.cls-4{fill:#7152a2;}.cls-5{fill:#008eb4;}.cls-6{fill:#b464a8;}</style></defs><g id="Layer_2" data-name="Layer 2"><g id="Layer_1-2" data-name="Layer 1"><path class="cls-1" d="M48.7,26.3A22.49,22.49,0,0,1,71.07,46.52a2.52,2.52,0,0,0,2.53,2.25H94.84A2.58,2.58,0,0,0,97.4,46,48.78,48.78,0,0,0,0,46a2.59,2.59,0,0,0,2.56,2.76H23.81a2.52,2.52,0,0,0,2.53-2.25A22.48,22.48,0,0,1,48.7,26.3Z"/><rect class="cls-1" x="70.26" y="52.67" width="27.03" height="3.16" rx="1.58"/><rect class="cls-2" x="0.04" y="52.67" width="27" height="3.16" rx="1.58"/><rect class="cls-3" x="89.93" y="59.66" width="4.87" height="3.16" rx="1.58"/><rect class="cls-1" x="2.52" y="59.66" width="27.41" height="3.16" rx="1.58"/><rect class="cls-4" x="5.01" y="66.65" width="17.77" height="3.16" rx="1.58"/><rect class="cls-5" x="58.74" y="66.65" width="33.59" height="3.16" rx="1.58"/><rect class="cls-1" x="10.38" y="73.65" width="58.77" height="3.16" rx="1.58"/><rect class="cls-2" x="32.71" y="80.64" width="47.99" height="3.16" rx="1.58"/><rect class="cls-3" x="41.51" y="94.62" width="14.31" height="3.16" rx="1.58"/><rect class="cls-4" x="73.36" y="73.65" width="13.66" height="3.16" rx="1.58"/><rect class="cls-6" x="16.64" y="80.64" width="11.9" height="3.16" rx="1.58"/><rect class="cls-2" x="67.38" y="59.66" width="18.41" height="3.16" rx="1.58"/><rect class="cls-2" x="26.95" y="66.65" width="11.63" height="3.16" rx="1.58"/><rect class="cls-1" x="26.63" y="87.63" width="44.4" height="3.16" rx="1.58"/></g></g></svg>