<svg id="Layer_1" data-name="Layer 1" xmlns="http://www.w3.org/2000/svg" xmlns:xlink="http://www.w3.org/1999/xlink" viewBox="0 0 624.52 157.69"><defs><style>.cls-1{fill:none;}.cls-2{clip-path:url(#clip-path);}.cls-3{fill:#323c8a;}.cls-4{fill:#008eb4;}.cls-5{fill:#4159a8;}.cls-6{fill:#e97293;}.cls-7{fill:#7152a2;}.cls-8{fill:#b464a8;}</style><clipPath id="clip-path"><rect class="cls-1" width="625" height="158"/></clipPath></defs><g class="cls-2"><path class="cls-3" d="M196.82,95.36q-5-5-5-15.21,0-10.73,4.91-15.63t14.78-4.91q9.79,0,14.74,4.91t4.93,15.63q0,10.25-5,15.21t-14.71,5q-9.75,0-14.72-5m22-6.29c1.53-1.9,2.3-4.88,2.3-8.92q0-6.56-2.27-9.32c-1.51-1.84-4-2.76-7.29-2.76s-5.85.92-7.36,2.76-2.27,5-2.27,9.32c0,4,.77,7,2.3,8.92s4,2.85,7.33,2.85,5.73-1,7.26-2.85"/><path class="cls-3" d="M239.27,95.05q-5.47-5.28-5.48-14.78,0-10,5.33-15.33t15.82-5.33a35.68,35.68,0,0,1,6.28.52,38.9,38.9,0,0,1,5.67,1.5v8.65a29,29,0,0,0-11.22-2.21c-4.08,0-7.08,1-9,3s-2.85,5-2.85,9.25q0,6,3,8.8t9,2.85A28.8,28.8,0,0,0,267,89.77v8.71A36.68,36.68,0,0,1,255,100.32q-10.25,0-15.73-5.27"/><polygon class="cls-3" points="273.21 60.22 302.33 60.22 302.33 67.82 283.08 67.82 283.08 76.1 300.06 76.1 300.06 83.83 283.08 83.83 283.08 92.11 302.33 92.11 302.33 99.71 273.21 99.71 273.21 60.22"/><path class="cls-3" d="M320.9,60.22h10.67l15.08,39.49h-10.3l-3.55-9H319.62l-3.5,9h-10.3Zm10.55,23.24-5.27-13.73L321,83.46Z"/><polygon class="cls-3" points="351.68 60.22 360.14 60.22 376.94 83.83 376.94 60.22 386.87 60.22 386.87 99.71 378.35 99.71 361.55 76.16 361.55 99.71 351.68 99.71 351.68 60.22"/><path class="cls-4" d="M406.61,98.6v-3a32.6,32.6,0,0,0,11.22,1.84c3.92,0,6.84-.62,8.76-1.84s2.89-3.21,2.89-5.95a6.93,6.93,0,0,0-1.14-4.11,8.29,8.29,0,0,0-3.62-2.66,39.62,39.62,0,0,0-7-2.06q-6.69-1.47-9.41-3.92a8.53,8.53,0,0,1-2.74-6.69,9.4,9.4,0,0,1,3.56-7.78q3.56-2.82,10.61-2.82a38,38,0,0,1,6,.46,32,32,0,0,1,4.62,1v3a29.91,29.91,0,0,0-9.93-1.54q-5.7,0-8.61,1.84a6.39,6.39,0,0,0-2.91,5.82,6.12,6.12,0,0,0,1,3.68,7.79,7.79,0,0,0,3.34,2.43,41.54,41.54,0,0,0,6.87,2.05c4.7,1.1,8,2.54,9.84,4.29a9.17,9.17,0,0,1,2.79,7,9.21,9.21,0,0,1-3.74,8q-3.75,2.7-11,2.7a31.65,31.65,0,0,1-11.46-1.72"/><path class="cls-4" d="M443.88,95.23q-4.35-5.08-4.35-15.08,0-10.61,4.29-15.58t13.43-5q9.13,0,13.42,5T475,80.15q0,10-4.35,15.08t-13.36,5.09q-9,0-13.37-5.09m24.19-2q3.53-4.2,3.52-13.09A28,28,0,0,0,470,69.85a10.63,10.63,0,0,0-4.69-5.58,16.68,16.68,0,0,0-8.09-1.72,16.9,16.9,0,0,0-8.13,1.72,10.59,10.59,0,0,0-4.72,5.58,28,28,0,0,0-1.56,10.3q0,8.88,3.52,13.09t10.89,4.2q7.29,0,10.82-4.2"/><polygon class="cls-4" points="482.93 60.22 486.12 60.22 510.58 94.68 510.58 60.22 513.95 60.22 513.95 99.71 510.7 99.71 486.31 65.31 486.31 99.71 482.93 99.71 482.93 60.22"/><rect class="cls-4" x="524.38" y="60.22" width="3.37" height="39.48"/><path class="cls-4" d="M541.48,95.17q-4.54-5.16-4.54-14.1,0-10.18,4.33-15.82T555,59.6a33.54,33.54,0,0,1,11.28,1.79v3a31.31,31.31,0,0,0-11-1.84c-5.43,0-9.31,1.59-11.61,4.75s-3.47,7.76-3.47,13.77q0,16.37,15.27,16.37a38.86,38.86,0,0,0,5.67-.43,28.49,28.49,0,0,0,5.12-1.23v3a37.68,37.68,0,0,1-11.22,1.53q-9.08,0-13.61-5.15"/><path class="cls-4" d="M575.26,98.6v-3a32.6,32.6,0,0,0,11.22,1.84c3.92,0,6.84-.62,8.77-1.84s2.87-3.21,2.87-5.95A6.91,6.91,0,0,0,597,85.54a8.37,8.37,0,0,0-3.61-2.66,40,40,0,0,0-7-2.06q-6.69-1.47-9.42-3.92a8.57,8.57,0,0,1-2.72-6.69,9.37,9.37,0,0,1,3.55-7.78q3.55-2.82,10.61-2.82a38,38,0,0,1,6,.46,32.36,32.36,0,0,1,4.62,1v3a30.18,30.18,0,0,0-9.93-1.53q-5.7,0-8.61,1.84a6.39,6.39,0,0,0-2.91,5.82,6.19,6.19,0,0,0,1,3.68,7.87,7.87,0,0,0,3.34,2.43,42.55,42.55,0,0,0,6.87,2.05c4.7,1.1,8,2.53,9.84,4.29a9.17,9.17,0,0,1,2.79,7,9.21,9.21,0,0,1-3.74,8c-2.5,1.8-6.15,2.7-11,2.7a31.65,31.65,0,0,1-11.46-1.72"/><path class="cls-3" d="M118.23,54.47a25.37,25.37,0,0,1,25.24,22.82,2.86,2.86,0,0,0,2.86,2.54h24a2.92,2.92,0,0,0,2.9-3.11,55.05,55.05,0,0,0-109.93,0,2.92,2.92,0,0,0,2.89,3.11h24A2.86,2.86,0,0,0,93,77.29a25.37,25.37,0,0,1,25.23-22.82"/><path class="cls-3" d="M142.57,86a1.78,1.78,0,0,0,1.78,1.78h26.94a1.79,1.79,0,0,0,0-3.57H144.35A1.78,1.78,0,0,0,142.57,86"/><path class="cls-5" d="M63.32,86A1.78,1.78,0,0,0,65.1,87.8H92a1.79,1.79,0,0,0,0-3.57H65.1A1.79,1.79,0,0,0,63.32,86"/><path class="cls-6" d="M166.55,95.69h1.93a1.79,1.79,0,1,0,0-3.57h-1.93a1.79,1.79,0,0,0,0,3.57"/><path class="cls-3" d="M66.12,93.91a1.78,1.78,0,0,0,1.78,1.78H95.27a1.79,1.79,0,1,0,0-3.57H67.9a1.79,1.79,0,0,0-1.78,1.79"/><path class="cls-7" d="M68.92,101.79a1.79,1.79,0,0,0,1.78,1.79H87.2a1.79,1.79,0,0,0,0-3.57H70.7a1.78,1.78,0,0,0-1.78,1.78"/><path class="cls-4" d="M131.34,103.58h34.34a1.79,1.79,0,0,0,0-3.57H131.34a1.79,1.79,0,0,0,0,3.57"/><path class="cls-3" d="M76.77,111.47h62.75a1.79,1.79,0,1,0,0-3.57H76.77a1.79,1.79,0,1,0,0,3.57"/><path class="cls-5" d="M102,119.36h50.59a1.79,1.79,0,1,0,0-3.57H102a1.79,1.79,0,0,0,0,3.57"/><path class="cls-6" d="M111.9,135.14h12.58a1.79,1.79,0,1,0,0-3.57H111.9a1.79,1.79,0,0,0,0,3.57"/><path class="cls-7" d="M147.84,111.47h11.84a1.79,1.79,0,0,0,0-3.57H147.84a1.79,1.79,0,1,0,0,3.57"/><path class="cls-8" d="M83.83,119.36H93.7a1.79,1.79,0,0,0,0-3.57H83.83a1.79,1.79,0,0,0,0,3.57"/><path class="cls-5" d="M141.09,95.69H158.3a1.79,1.79,0,0,0,0-3.57H141.09a1.79,1.79,0,1,0,0,3.57"/><path class="cls-5" d="M93.68,101.79a1.79,1.79,0,0,0,1.78,1.79H105a1.79,1.79,0,1,0,0-3.57H95.46a1.78,1.78,0,0,0-1.78,1.78"/><path class="cls-3" d="M95.1,127.25h46.54a1.79,1.79,0,0,0,0-3.57H95.1a1.79,1.79,0,0,0,0,3.57"/></g></svg>