<?xml version="1.0" encoding="utf-8"?>
<!-- Generator: Adobe Illustrator 25.4.1, SVG Export Plug-In . SVG Version: 6.00 Build 0)  -->
<svg version="1.1" id="Layer_1" xmlns="http://www.w3.org/2000/svg" xmlns:xlink="http://www.w3.org/1999/xlink" x="0px" y="0px"
	 viewBox="0 0 625 158" style="enable-background:new 0 0 625 158;" xml:space="preserve">
<style type="text/css">
	.st0{clip-path:url(#SVGID_00000146475467785803391760000013805450503180224167_);}
	.st1{fill:#FFFFFF;}
</style>
<g>
	<g>
		<g>
			<defs>
				<rect id="SVGID_1_" x="57.6" width="567.4" height="158"/>
			</defs>
			<clipPath id="SVGID_00000102538741498825158100000015473995474177749409_">
				<use xlink:href="#SVGID_1_"  style="overflow:visible;"/>
			</clipPath>
			<g style="clip-path:url(#SVGID_00000102538741498825158100000015473995474177749409_);">
				<path class="st1" d="M196.8,95.4c-3.3-3.3-5-8.4-5-15.2c0-7.2,1.6-12.4,4.9-15.6c3.3-3.3,8.2-4.9,14.8-4.9
					c6.5,0,11.4,1.6,14.7,4.9s4.9,8.5,4.9,15.6c0,6.8-1.7,11.9-5,15.2c-3.3,3.3-8.2,5-14.7,5C205,100.4,200.1,98.7,196.8,95.4
					 M218.8,89.1c1.5-1.9,2.3-4.9,2.3-8.9c0-4.4-0.8-7.5-2.3-9.3s-4-2.8-7.3-2.8s-5.9,0.9-7.4,2.8s-2.3,5-2.3,9.3c0,4,0.8,7,2.3,8.9
					s4,2.8,7.3,2.8S217.2,90.9,218.8,89.1"/>
				<path class="st1" d="M239.3,95.1c-3.6-3.5-5.5-8.4-5.5-14.8c0-6.7,1.8-11.8,5.3-15.3c3.6-3.6,8.8-5.3,15.8-5.3
					c2.1,0,4.2,0.2,6.3,0.5c1.9,0.4,3.8,0.9,5.7,1.5v8.6c-3.6-1.5-7.4-2.2-11.2-2.2c-4.1,0-7.1,1-9,3s-2.9,5-2.9,9.2
					c0,4,1,6.9,3,8.8s5,2.8,9,2.8c3.8,0,7.6-0.7,11.2-2.2v8.7c-3.9,1.3-7.9,1.9-12,1.8C248.2,100.3,242.9,98.6,239.3,95.1"/>
				<polygon class="st1" points="273.2,60.2 302.3,60.2 302.3,67.8 283.1,67.8 283.1,76.1 300.1,76.1 300.1,83.8 283.1,83.8 
					283.1,92.1 302.3,92.1 302.3,99.7 273.2,99.7 				"/>
				<path class="st1" d="M320.9,60.2h10.7l15.1,39.5h-10.3l-3.5-9h-13.2l-3.5,9h-10.3L320.9,60.2z M331.4,83.5l-5.3-13.7L321,83.5
					H331.4z"/>
				<polygon class="st1" points="351.7,60.2 360.1,60.2 376.9,83.8 376.9,60.2 386.9,60.2 386.9,99.7 378.4,99.7 361.5,76.2 
					361.5,99.7 351.7,99.7 				"/>
				<path class="st1" d="M406.6,98.6v-3c3.6,1.3,7.4,1.9,11.2,1.8c3.9,0,6.8-0.6,8.8-1.8s2.9-3.2,2.9-5.9c0.1-1.5-0.3-2.9-1.1-4.1
					c-0.9-1.2-2.2-2.1-3.6-2.7c-2.3-0.9-4.6-1.6-7-2.1c-4.5-1-7.6-2.3-9.4-3.9c-1.9-1.7-2.9-4.2-2.7-6.7c-0.1-3,1.2-5.9,3.6-7.8
					c2.4-1.9,5.9-2.8,10.6-2.8c2,0,4,0.1,6,0.5c1.6,0.2,3.1,0.6,4.6,1v3c-3.2-1.1-6.6-1.6-9.9-1.5c-3.8,0-6.7,0.6-8.6,1.8
					c-2,1.3-3.1,3.5-2.9,5.8c-0.1,1.3,0.3,2.6,1,3.7c0.9,1.1,2,1.9,3.3,2.4c2.2,0.9,4.5,1.6,6.9,2.1c4.7,1.1,8,2.5,9.8,4.3
					c1.9,1.8,2.9,4.4,2.8,7c0.2,3.1-1.2,6.1-3.7,8c-2.5,1.8-6.2,2.7-11,2.7C414.1,100.5,410.2,99.9,406.6,98.6"/>
				<path class="st1" d="M443.9,95.2c-2.9-3.4-4.4-8.4-4.4-15.1c0-7.1,1.4-12.3,4.3-15.6c2.9-3.3,7.3-5,13.4-5s10.6,1.7,13.4,5
					c2.9,3.3,4.3,8.5,4.3,15.6c0,6.7-1.4,11.7-4.4,15.1c-2.9,3.4-7.4,5.1-13.4,5.1C451.3,100.3,446.8,98.6,443.9,95.2 M468.1,93.2
					c2.4-2.8,3.5-7.2,3.5-13.1c0.1-3.5-0.4-7-1.6-10.3c-0.9-2.4-2.5-4.3-4.7-5.6c-2.5-1.2-5.3-1.8-8.1-1.7c-2.8-0.1-5.6,0.5-8.1,1.7
					c-2.2,1.2-3.9,3.2-4.7,5.6c-1.2,3.3-1.7,6.8-1.6,10.3c0,5.9,1.2,10.3,3.5,13.1c2.3,2.8,6,4.2,10.9,4.2
					C462.1,97.4,465.7,96,468.1,93.2"/>
				<polygon class="st1" points="482.9,60.2 486.1,60.2 510.6,94.7 510.6,60.2 514,60.2 514,99.7 510.7,99.7 486.3,65.3 486.3,99.7 
					482.9,99.7 				"/>
				<rect x="524.4" y="60.2" class="st1" width="3.4" height="39.5"/>
				<path class="st1" d="M541.5,95.2c-3-3.4-4.5-8.1-4.5-14.1c0-6.8,1.4-12.1,4.3-15.8c2.9-3.8,7.5-5.6,13.7-5.7
					c3.8-0.1,7.7,0.6,11.3,1.8v3c-3.5-1.3-7.3-1.9-11-1.8c-5.4,0-9.3,1.6-11.6,4.8s-3.5,7.8-3.5,13.8c0,10.9,5.1,16.4,15.3,16.4
					c1.9,0,3.8-0.1,5.7-0.4c1.7-0.3,3.5-0.7,5.1-1.2v3c-3.6,1.1-7.4,1.6-11.2,1.5C549,100.3,544.5,98.6,541.5,95.2"/>
				<path class="st1" d="M575.3,98.6v-3c3.6,1.3,7.4,1.9,11.2,1.8c3.9,0,6.8-0.6,8.8-1.8s2.9-3.2,2.9-5.9c0.1-1.5-0.3-2.9-1.1-4.1
					c-0.9-1.2-2.2-2.1-3.6-2.7c-2.3-0.9-4.6-1.6-7-2.1c-4.5-1-7.6-2.3-9.4-3.9c-1.8-1.7-2.8-4.2-2.7-6.7c-0.1-3,1.2-5.9,3.5-7.8
					c2.4-1.9,5.9-2.8,10.6-2.8c2,0,4,0.1,6,0.5c1.6,0.2,3.1,0.6,4.6,1v3c-3.2-1.1-6.6-1.6-9.9-1.5c-3.8,0-6.7,0.6-8.6,1.8
					c-2,1.3-3.1,3.5-2.9,5.8c-0.1,1.3,0.3,2.6,1,3.7c0.9,1.1,2,1.9,3.3,2.4c2.2,0.9,4.5,1.6,6.9,2.1c4.7,1.1,8,2.5,9.8,4.3
					c1.9,1.8,2.9,4.4,2.8,7c0.2,3.1-1.2,6.1-3.7,8c-2.5,1.8-6.2,2.7-11,2.7C582.8,100.5,578.9,99.9,575.3,98.6"/>
				<path class="st1" d="M118.2,54.5c13,0,23.9,9.9,25.2,22.8c0.2,1.5,1.4,2.5,2.9,2.5h24c1.6,0,2.9-1.3,2.9-2.9c0-0.1,0-0.1,0-0.2
					c-1.7-30.4-27.7-53.6-58-51.9c-28,1.6-50.3,23.9-51.9,51.9c-0.1,1.6,1.1,3,2.7,3.1c0.1,0,0.1,0,0.2,0h24c1.4,0,2.6-1.1,2.8-2.5
					C94.3,64.3,105.2,54.5,118.2,54.5"/>
				<path class="st1" d="M142.6,86c0,1,0.8,1.8,1.8,1.8h26.9c1-0.1,1.7-0.9,1.7-1.9c-0.1-0.9-0.8-1.6-1.7-1.7h-26.9
					C143.4,84.2,142.6,85,142.6,86L142.6,86"/>
				<path class="st1" d="M63.3,86c0,1,0.8,1.8,1.8,1.8l0,0H92c1-0.1,1.7-0.9,1.7-1.9c-0.1-0.9-0.8-1.6-1.7-1.7H65.1
					C64.1,84.2,63.3,85,63.3,86"/>
				<path class="st1" d="M166.6,95.7h1.9c1,0.1,1.8-0.7,1.9-1.7c0.1-1-0.7-1.8-1.7-1.9c-0.1,0-0.2,0-0.3,0h-1.9
					c-1,0.1-1.7,0.9-1.7,1.9C165,94.9,165.7,95.6,166.6,95.7"/>
				<path class="st1" d="M66.1,93.9c0,1,0.8,1.8,1.8,1.8h27.4c1,0.1,1.8-0.7,1.9-1.7s-0.7-1.8-1.7-1.9c-0.1,0-0.2,0-0.3,0H67.9
					C66.9,92.1,66.1,92.9,66.1,93.9"/>
				<path class="st1" d="M68.9,101.8c0,1,0.8,1.8,1.8,1.8h16.5c1-0.1,1.7-0.9,1.7-1.9c-0.1-0.9-0.8-1.6-1.7-1.7H70.7
					C69.7,100,68.9,100.8,68.9,101.8"/>
				<path class="st1" d="M131.3,103.6h34.3c1-0.1,1.7-0.9,1.7-1.9c-0.1-0.9-0.8-1.6-1.7-1.7h-34.3c-1,0.1-1.7,0.9-1.7,1.9
					C129.8,102.8,130.5,103.5,131.3,103.6"/>
				<path class="st1" d="M76.8,111.5h62.7c1,0.1,1.8-0.7,1.9-1.7c0.1-1-0.7-1.8-1.7-1.9c-0.1,0-0.2,0-0.3,0H76.8
					c-1-0.1-1.8,0.7-1.9,1.7s0.7,1.8,1.7,1.9C76.6,111.5,76.7,111.5,76.8,111.5"/>
				<path class="st1" d="M102,119.4h50.6c1,0.1,1.8-0.7,1.9-1.7c0.1-1-0.7-1.8-1.7-1.9c-0.1,0-0.2,0-0.3,0H102
					c-1,0.1-1.7,0.9-1.7,1.9C100.4,118.6,101.1,119.3,102,119.4"/>
				<path class="st1" d="M111.9,135.1h12.6c1,0.1,1.8-0.7,1.9-1.7s-0.7-1.8-1.7-1.9c-0.1,0-0.2,0-0.3,0h-12.6
					c-1,0.1-1.7,0.9-1.7,1.9C110.3,134.4,111,135.1,111.9,135.1"/>
				<path class="st1" d="M147.8,111.5h11.8c1-0.1,1.7-0.9,1.7-1.9c-0.1-0.9-0.8-1.6-1.7-1.7h-11.8c-1-0.1-1.8,0.7-1.9,1.7
					c-0.1,1,0.7,1.8,1.7,1.9C147.7,111.5,147.8,111.5,147.8,111.5"/>
				<path class="st1" d="M83.8,119.4h9.9c1-0.1,1.7-0.9,1.7-1.9c-0.1-0.9-0.8-1.6-1.7-1.7h-9.9c-1,0.1-1.7,0.9-1.7,1.9
					C82.2,118.6,82.9,119.3,83.8,119.4"/>
				<path class="st1" d="M141.1,95.7h17.2c1-0.1,1.7-0.9,1.7-1.9c-0.1-0.9-0.8-1.6-1.7-1.7h-17.2c-1-0.1-1.8,0.7-1.9,1.7
					c-0.1,1,0.7,1.8,1.7,1.9C140.9,95.7,141,95.7,141.1,95.7"/>
				<path class="st1" d="M93.7,101.8c0,1,0.8,1.8,1.8,1.8h9.5c1,0.1,1.8-0.7,1.9-1.7s-0.7-1.8-1.7-1.9c-0.1,0-0.2,0-0.3,0h-9.5
					C94.5,100,93.7,100.8,93.7,101.8"/>
				<path class="st1" d="M95.1,127.2h46.5c1-0.1,1.7-0.9,1.7-1.9c-0.1-0.9-0.8-1.6-1.7-1.7H95.1c-1,0.1-1.7,0.9-1.7,1.9
					C93.5,126.5,94.2,127.2,95.1,127.2"/>
			</g>
		</g>
	</g>
</g>
</svg>
